<?xml version="1.0" encoding="UTF-8"?><svg id="a" xmlns="http://www.w3.org/2000/svg" viewBox="0 0 1048.97 871.38"><defs><style>.b{fill:#fff;}.c{fill:#cccccb;}.d{fill:#1e1e1e;}</style></defs><path class="c" d="M860.4,185.3h-34.96c-60.08-97.8-168.99-165.01-293.37-165.01S299.31,87.5,239.14,185.3h-35.39c-104.23,0-189.37,84.74-189.37,188.96v57.94c0,104.23,85.14,188.03,189.37,188.03h102.41c60.33,54.05,139.37,85.34,225.91,85.34s166.29-31.3,226.72-85.34h101.61c103.83,0,188.57-84.2,188.57-188.03v-57.94c0-103.83-84.74-188.96-188.57-188.96Z"/><polygon class="c" points="369.54 754.9 369.54 741.2 269.17 741.2 269.17 756.64 343.19 756.64 268.6 854.12 268.79 869.87 369.54 869.87 369.54 851.86 294.72 851.86 369.54 754.9"/><path class="c" d="M455.91,737.81c-36.26,0-67.07,30.43-67.07,66.69s30.81,66.88,67.07,66.88,66.69-30.62,66.69-66.88-30.43-66.69-66.69-66.69Zm0,116.1c-25.74,0-47.53-22.54-47.53-49.41s21.79-49.22,47.53-49.22,47.34,22.54,47.34,49.22-21.61,49.41-47.34,49.41Z"/><polygon class="c" points="642.34 837.94 567.13 741.2 547.11 741.2 547.11 869.87 567.7 869.87 567.7 771.25 641.34 869.87 660.35 869.87 660.35 741.2 642.34 741.2 642.34 837.94"/><polygon class="c" points="691.24 869.87 786.46 869.87 786.46 851.86 709.25 851.86 709.25 813.26 778.74 813.26 778.74 795.24 709.25 795.24 709.25 756.64 786.46 756.64 786.46 741.2 691.24 741.2 691.24 869.87"/><circle class="d" cx="516.63" cy="342.81" r="342.81" transform="translate(-91.09 465.72) rotate(-45)"/><rect class="b" x="10.86" y="176.23" width="1011.53" height="412.82" rx="191.05" ry="191.05"/><path class="d" d="M844.96,599.92H188.3C84.47,599.92,0,515.45,0,411.61v-57.94c0-103.83,84.47-188.3,188.3-188.3H844.96c103.83,0,188.3,84.47,188.3,188.3v57.94c0,103.83-84.47,188.3-188.3,188.3ZM188.3,187.1c-91.85,0-166.58,74.73-166.58,166.58v57.94c0,91.85,74.73,166.58,166.58,166.58H844.96c91.85,0,166.58-74.73,166.58-166.58v-57.94c0-91.85-74.73-166.58-166.58-166.58H188.3Z"/><g><path class="d" d="M336.38,589.05H188.3c-97.59,0-177.44-79.85-177.44-177.44v-57.94c0-97.59,79.85-177.44,177.44-177.44H711.6c-366.41,0,0,412.82-375.22,412.82Z"/><path class="d" d="M336.38,593.56H188.3c-48.4,0-94.04-18.98-128.5-53.44C25.34,505.65,6.36,460.02,6.36,411.61v-57.94c0-48.4,18.98-94.04,53.44-128.5,34.46-34.46,80.1-53.44,128.5-53.44H711.59c2.49,0,4.5,2.01,4.5,4.5s-2.01,4.5-4.5,4.5c-177.66,0-178.7,97.21-179.79,200.12-.55,51.73-1.12,105.21-25.77,145.36-13.43,21.87-32.6,37.91-58.59,49.04-28.77,12.32-65.1,18.3-111.07,18.3ZM188.3,180.73c-46,0-89.37,18.04-122.14,50.81S15.36,307.68,15.36,353.67v57.94c0,46,18.04,89.37,50.81,122.14,32.76,32.76,76.14,50.81,122.14,50.81h148.07c44.72,0,79.9-5.75,107.52-17.58,24.23-10.37,42.04-25.25,54.46-45.47,23.35-38.02,23.91-90.25,24.44-140.75,.9-84.96,1.83-172.3,107.54-200.02H188.3Z"/></g><g><path class="b" d="M345.05,481.63h-50.71l-40.17-135.88-40.45,135.88h-50.71l-37.6-193.71h47l22.79,133.6,37.89-133.6h41.88l37.89,133.6,22.79-133.6h47l-37.6,193.71Z"/><path class="b" d="M423.96,287.92c13.67,0,25.07,11.11,25.07,25.07s-11.4,25.07-25.07,25.07-25.07-11.39-25.07-25.07,11.11-25.07,25.07-25.07Zm-21.37,193.71v-125.63h42.73v125.63h-42.73Z"/></g><path class="d" d="M670.27,415.93v77.77h-42.73v-193.71h153.62v38.74h-110.9v38.46h108.05v38.74h-108.05Z"/><path class="d" d="M835.3,299.99c13.67,0,25.07,11.11,25.07,25.07s-11.4,25.07-25.07,25.07-25.07-11.4-25.07-25.07,11.11-25.07,25.07-25.07Zm-21.36,193.71v-125.62h42.73v125.62h-42.73Z"/><g><path class="d" d="M258.31,838.84l74.58-96.56h-73.08v-17.66h99.19v14.84l-74.58,96.56h75.33v17.66h-101.26l-.19-14.84Z"/><path class="d" d="M378.55,789.06c0-36.26,30.81-66.69,67.07-66.69s66.69,30.43,66.69,66.69-30.43,66.88-66.69,66.88-67.07-30.62-67.07-66.88Zm114.41,0c0-26.68-21.6-49.22-47.34-49.22s-47.53,22.54-47.53,49.22,21.79,49.41,47.53,49.41,47.34-22.54,47.34-49.41Z"/><path class="d" d="M537.86,724.62h18.97l74.21,97.88v-97.88h18.97v129.06h-18.97l-74.21-97.88v97.88h-18.97v-129.06Z"/><path class="d" d="M699.62,742.28v36.82h68.38v17.66h-68.38v39.26h75.71v17.66h-94.87v-129.06h94.87v17.66h-75.71Z"/></g><g><path class="b" d="M389.17,82.58v20.38h41.57v13.35h-41.57v33.37h-14.64V69.23h60.54v13.35h-45.9Z"/><path class="b" d="M497.01,149.68l-18.97-27.05h-15.57v27.05h-14.64V69.23h35.01c17.21,0,30.09,11.01,30.09,26.7,0,12.18-7.85,21.55-19.44,25.18l20.14,28.57h-16.63Zm-34.54-40.52h18.74c9.95,0,16.86-5.04,16.86-13.23s-6.91-13.23-16.86-13.23h-18.74v26.46Z"/><path class="b" d="M540.81,82.58v19.44h41.57v13.35h-41.57v20.96h45.9v13.35h-60.54V69.23h60.54v13.35h-45.9Z"/><path class="b" d="M615.4,82.58v19.44h41.57v13.35h-41.57v20.96h45.9v13.35h-60.54V69.23h60.54v13.35h-45.9Z"/></g></svg>